<svg width="371" height="357" viewBox="0 0 371 357" fill="none" xmlns="http://www.w3.org/2000/svg">
<path d="M0 0H185.5H371V357H0V0Z" fill="#FAF8F4"/>
<path d="M217.067 184.1C216.112 184.1 214.839 183.994 213.778 183.677C212.928 183.465 212.504 182.832 212.61 181.987C212.716 181.037 213.671 179.77 214.733 179.77C216.749 179.874 219.509 181.037 219.509 182.937C219.403 183.782 218.554 184.1 217.069 184.1H217.067ZM153.492 233.95H153.174C152.856 233.95 152.432 233.95 152.007 233.844C145.533 233.211 141.605 228.774 141.605 222.12C141.605 213.988 147.656 204.167 155.722 203.427C156.146 203.427 156.677 203.322 157.102 203.322C161.029 203.322 164.213 205.012 166.336 208.286C167.502 210.08 168.246 212.193 168.457 214.623C170.687 213.143 172.703 210.926 174.083 208.179C174.613 205.882 175.179 203.594 175.781 201.315C176.206 199.836 178.222 199.097 180.027 199.097H180.132C181.619 199.097 182.786 199.625 183.423 200.365C183.848 200.892 183.954 201.525 183.741 202.265C180.664 213.99 181.725 221.275 182.68 222.439C186.819 218.002 188.305 211.981 189.791 206.279C190.11 204.905 190.535 203.322 190.959 201.843C191.383 200.47 192.551 199.73 194.249 199.73H194.354C195.098 199.73 196.266 199.942 197.008 200.787C197.327 201.209 197.432 201.736 197.327 202.37C194.461 213.038 198.494 218.424 200.192 219.586C204.225 215.89 205.286 209.343 206.242 204.06C206.454 203.005 206.561 201.948 206.772 200.998C206.985 199.73 208.153 198.885 209.638 198.885H209.745C210.806 198.885 211.761 199.308 212.292 200.047C212.716 200.575 212.823 201.209 212.716 201.843C211.124 224.551 202.315 225.712 200.51 225.712H198.494C194.249 225.606 192.762 221.804 191.702 217.896C188.411 224.339 185.439 227.824 182.574 228.775C181.406 229.197 180.239 229.303 179.284 229.303H179.178C177.268 229.303 175.676 228.458 174.614 226.979C173.234 225.079 172.598 221.91 172.809 217.685C171.324 218.635 169.838 219.375 168.352 219.903C168.139 221.17 167.715 222.437 167.291 223.494C164.319 230.253 159.436 233.95 153.492 233.95ZM152.007 215.466C151.52 216.249 151.161 217.105 150.945 218.001C149.885 222.122 149.885 226.874 153.174 228.036C153.599 228.247 154.13 228.247 154.554 228.352H154.66C157.633 228.352 160.923 225.079 162.303 220.642L162.408 220.431C160.919 220.328 159.453 220.009 158.057 219.481C155.721 218.637 153.492 217.157 152.007 215.468V215.466ZM159.649 208.919C158.057 209.976 157.42 211.876 157.526 213.249C157.633 214.516 158.269 215.468 159.224 215.89C160.285 216.312 161.453 216.628 162.621 216.628H163.045C163.151 214.306 162.514 211.137 159.649 208.919Z" fill="#12299C"/>
<path d="M224.178 223.177C222.268 223.177 219.826 222.332 219.19 218.635L219.933 195.189C219.295 191.493 215.687 191.387 212.185 191.387H210.062C206.029 191.281 202.314 191.281 198.494 191.281C196.795 191.281 196.052 191.387 194.354 191.387L192.869 191.493C192.656 191.493 191.913 191.597 190.215 191.597H189.896C189.048 191.597 188.517 191.387 188.199 191.071C187.986 190.753 187.88 190.436 187.986 190.014L188.199 188.536C188.304 187.795 188.835 186.529 190.322 186.422C190.64 186.422 190.851 186.318 191.064 186.318C191.277 186.318 191.488 186.212 191.808 186.212H191.912C196.158 186.106 199.66 186.106 202.845 186.106C208.576 186.106 212.822 186.317 216.855 186.845C216.96 186.845 226.194 187.479 226.725 194.766C226.725 195.189 226.725 196.456 226.619 197.83C226.194 202.054 226.088 210.081 226.407 213.355C226.407 213.566 226.513 213.778 226.513 213.988C226.618 213.778 226.938 213.038 227.256 212.299C229.166 207.969 233.412 197.83 238.082 197.83C238.4 197.83 238.612 197.83 238.93 197.934C242.327 198.252 244.026 202.37 244.768 204.377L244.981 204.905C245.829 207.018 247.528 211.031 251.348 212.088C251.985 212.299 252.622 212.299 253.153 212.299C256.549 212.299 259.52 209.659 261.219 205.012C261.431 204.589 261.963 204.272 262.174 204.167L262.811 203.955V204.167H263.024C264.297 204.167 264.721 204.694 264.934 205.222C265.04 205.645 264.934 206.279 264.827 206.49C263.661 209.447 261.112 213.566 255.7 216.101C254.321 216.735 253.047 217.051 251.668 217.051C245.617 217.051 241.477 210.503 239.674 207.757C239.461 207.334 239.249 207.018 239.037 206.807C238.93 206.701 238.825 206.596 238.825 206.49C238.4 205.962 238.294 205.645 237.764 205.645H237.657C236.489 205.75 235.746 207.334 234.579 209.869C234.26 210.61 233.836 211.455 233.412 212.3L232.668 213.671C230.44 218.213 228.317 222.543 225.346 223.282H225.027C224.92 223.177 224.496 223.177 224.178 223.177ZM107.112 214.306C101.911 214.306 100.849 210.926 100.319 209.553L100.213 209.236C100.213 209.131 100.213 209.024 100.106 208.919V208.708C99.8957 207.229 100 204.167 103.502 200.891C107.961 196.772 116.239 193.604 128.232 191.492C143.091 189.273 159.117 187.795 159.329 187.795L172.915 187.161C173.763 187.161 174.189 187.373 174.294 187.583C174.613 188.006 174.507 188.535 174.4 188.64L173.87 190.963C173.658 192.23 172.703 192.653 171.96 192.653C171.642 192.653 171.111 192.653 170.58 192.759H170.368C169.519 192.759 168.564 192.863 167.82 192.863C167.502 192.863 165.061 192.97 161.347 193.287L159.117 193.392C157.206 193.604 155.403 193.709 153.386 194.027C120.696 197.617 113.054 203.848 112.524 208.495V208.918C112.311 210.819 111.993 214.093 107.323 214.199L107.112 214.303V214.306Z" fill="#12299C"/>
<path d="M123.987 244.934H123.669C122.821 244.829 122.183 244.512 121.759 243.877C121.334 243.244 121.228 242.399 121.44 241.448C125.048 217.896 130.673 205.539 133.009 201.315C133.857 199.836 135.98 199.097 137.785 199.097H138.209C139.589 199.201 140.12 199.73 140.332 200.258C140.544 200.575 140.65 201.103 140.332 201.844C138.316 206.384 135.132 218.53 132.478 238.175C131.947 241.871 126.854 244.934 123.987 244.934ZM239.038 167.94C238.719 165.934 236.066 164.35 234.898 164.35C234.368 164.35 234.155 164.667 234.049 164.772C233.943 164.983 233.837 165.405 234.261 165.934C234.474 166.25 234.474 166.567 234.261 167.095C233.518 169.102 229.698 171.743 226.514 172.481C225.44 172.765 224.334 172.907 223.223 172.904C221.95 172.904 220.145 172.693 219.403 171.426C218.766 170.476 218.766 169.102 219.296 167.307H219.827C220.464 167.307 221.1 167.307 221.737 167.201C225.028 166.884 229.697 165.616 233.2 161.287C236.066 157.696 235.747 153.787 232.456 151.148C230.76 149.774 228.954 149.035 227.044 149.035C221.313 149.035 216.962 155.583 215.263 158.435C214.52 159.808 213.883 161.181 213.459 162.554C212.928 162.448 212.504 162.448 211.972 162.448C211.549 162.448 211.124 162.344 210.593 162.344C211.336 160.654 211.867 158.964 212.397 157.062C213.141 154.211 212.928 151.887 211.654 150.407C210.487 148.929 208.365 148.084 205.604 148.084C203.376 148.084 200.723 148.612 198.493 149.564L198.813 148.929C199.024 148.507 199.024 147.979 198.706 147.662C198.069 146.606 196.159 146.5 195.629 146.5C193.717 146.5 192.338 147.134 191.807 148.296C190.11 151.781 186.713 161.075 186.607 161.498C183.635 170.369 180.557 172.799 179.178 172.799C178.752 172.799 178.541 172.481 178.541 172.271C178.01 170.369 180.133 163.187 184.803 150.936C185.121 150.197 184.909 149.669 184.59 149.352C184.059 148.612 183.104 148.296 181.725 148.296C180.133 148.296 178.328 148.929 177.797 150.197L177.692 150.409C177.586 150.619 177.479 150.936 177.373 151.253C175.463 150.409 173.446 149.986 171.642 149.986C166.76 149.986 161.877 152.838 158.375 157.801C155.828 161.287 154.343 165.512 154.236 169.314V169.736C150.734 173.326 144.896 177.446 139.908 177.446C138.953 177.446 138.103 177.235 137.254 177.023C133.433 175.545 131.947 170.581 133.326 163.505C134.388 157.696 137.254 151.253 140.969 146.184C145.002 140.586 149.566 137.628 153.811 137.628H154.236C155.934 137.735 156.996 139.318 157.314 140.692C157.525 141.853 157.314 142.91 156.57 143.227C156.04 143.437 155.827 143.86 155.827 144.282C155.827 145.339 157.844 146.289 158.269 146.5C159.013 146.817 160.179 147.134 161.347 147.134C162.09 147.134 162.726 147.029 163.257 146.712C165.168 145.867 165.698 143.649 164.744 140.058C163.894 136.678 161.453 133.932 158.162 132.454C156.742 131.9 155.23 131.614 153.705 131.609C147.867 131.609 141.287 135.306 135.238 142.065C129.718 148.19 125.367 156.218 123.456 163.61C120.167 176.495 125.474 181.459 128.87 183.36C131.099 184.522 133.646 185.155 136.405 185.155C143.835 185.155 151.795 180.508 156.04 175.968C156.827 177.023 157.851 177.878 159.031 178.466C160.211 179.053 161.513 179.355 162.832 179.347C166.123 179.347 169.519 177.551 172.385 174.171C173.022 176.706 174.508 178.185 176.524 178.396C178.328 178.608 180.133 178.08 181.83 177.128C180.133 183.465 178.859 188.853 177.903 193.711C177.798 194.238 177.903 194.766 178.223 195.189C178.752 195.823 179.814 196.245 181.088 196.245C182.786 196.245 184.696 195.611 185.015 194.133L185.864 190.542C188.092 181.248 188.199 180.825 189.897 175.968C190.959 176.601 192.232 176.917 193.717 176.917C194.991 176.917 199.661 176.601 204.013 172.481C205.711 170.898 207.092 169.207 208.258 167.517H208.577C209.85 167.624 211.231 167.729 212.716 167.729C212.716 168.362 212.716 168.891 212.823 169.419C213.459 173.855 217.704 176.918 221.63 177.657C223.118 177.973 224.497 178.08 225.876 178.08C232.139 178.08 235.641 175.123 237.128 173.433C238.401 171.214 239.249 169.312 239.038 167.94ZM220.676 163.399C222.799 159.491 226.196 154.633 229.061 153.999C229.591 154.421 229.805 155.373 229.485 156.64C229.273 157.273 229.061 158.013 228.637 158.646C225.77 162.554 223.011 163.293 220.676 163.399ZM175.887 155.689C172.385 170.793 163.363 173.961 161.771 173.961H161.453C161.029 173.749 160.816 172.693 161.347 170.686C162.726 165.3 168.67 155.373 174.295 155.373C174.508 155.266 175.357 155.373 175.887 155.689ZM202.633 166.779C200.617 169.63 198.494 171.426 196.37 171.848C195.84 171.954 195.309 172.059 194.885 172.059C193.399 172.059 193.081 171.321 192.975 171.109C192.657 169.736 193.506 168.152 194.354 167.624C196.584 166.25 199.768 166.038 202.209 166.038H203.27L202.633 166.779ZM204.649 162.025H203.057C199.343 162.025 196.477 162.554 194.461 163.715C196.477 158.118 200.192 154.421 204.968 153.26H205.286C205.499 153.26 205.711 153.365 205.924 153.471C206.242 153.788 206.454 154.528 206.454 155.583C206.348 157.273 205.71 159.597 204.649 162.025Z" fill="#12299C"/>
<path d="M202.699 140.833C201.461 140.733 200.889 139.117 200.603 137.604C200.257 135.804 200.034 133.983 199.937 132.153C199.937 131.143 199.747 125.895 201.27 124.077C201.747 123.573 202.223 123.472 202.509 123.472H202.604C204.51 123.573 205.558 126.601 205.653 129.427C205.653 129.73 205.748 130.034 205.748 130.133C205.939 130.034 206.511 129.73 207.368 128.721C208.701 127.005 211.75 123.675 213.56 123.675C214.132 123.675 214.704 124.077 214.894 124.684C215.085 125.189 215.655 126.601 211.655 131.648L209.368 134.575C208.32 136.089 204.51 140.833 202.699 140.833Z" fill="#C20730"/>
<path d="M185.159 120.447C184.413 119.921 183.133 119.921 182.387 120.132C181.748 120.341 181.322 120.552 181.109 121.079C177.804 127.811 175.673 133.913 174.394 140.33C174.288 140.751 174.501 141.171 174.927 141.487C175.886 142.118 177.911 142.118 178.977 141.698C179.723 141.382 179.937 140.961 179.937 140.751V140.54C181.215 134.228 182.494 127.601 185.479 121.92C185.798 121.288 185.692 120.763 185.159 120.447ZM191.553 130.968C190.594 131.177 189.529 132.756 189.208 134.439C189.102 135.069 188.995 136.543 190.061 137.068C190.275 137.174 190.38 137.174 190.594 137.174C191.34 137.174 192.193 136.332 192.832 134.964C193.259 134.017 193.366 133.176 193.152 132.44C192.832 131.809 192.299 131.282 191.553 130.968ZM188.888 140.435C188.249 140.435 187.503 140.33 186.971 140.119C185.798 139.699 185.052 138.962 184.626 137.91C184.092 136.437 184.413 134.544 185.372 132.756C186.757 130.23 189.848 127.811 193.366 127.811C193.685 127.811 194.005 127.811 194.217 127.915C194.644 127.915 194.856 128.022 195.07 128.231C197.415 129.285 198.374 131.177 197.841 133.387C197.095 136.859 192.62 140.435 188.888 140.435ZM221.928 129.494C221.714 129.494 221.289 129.81 220.861 130.336C220.222 131.282 219.689 132.334 219.583 133.387C221.395 133.387 222.247 132.65 222.46 131.072C222.46 130.862 222.567 129.705 221.928 129.494ZM222.46 140.225C220.115 140.12 218.197 139.278 217.024 137.91C216.173 136.859 215.853 135.385 216.278 133.808C217.131 130.125 219.583 127.601 222.887 126.97C223.206 126.865 223.739 126.865 224.272 126.865C225.658 126.865 226.617 127.285 227.15 128.022C228.108 129.389 228.003 131.282 227.043 132.756C225.765 134.649 223.739 135.701 220.861 136.016C221.395 137.069 222.353 137.595 223.846 137.7C225.018 137.7 225.231 138.226 225.231 138.542C225.231 139.383 223.419 140.225 222.46 140.225Z" fill="#12299C"/>
</svg>
